<svg xmlns="http://www.w3.org/2000/svg" xmlns:xlink="http://www.w3.org/1999/xlink" viewBox="0,0,256,256" width="400px" height="400px"><g fill="none" fill-rule="nonzero" stroke="none" stroke-width="1" stroke-linecap="butt" stroke-linejoin="miter" stroke-miterlimit="10" stroke-dasharray="" stroke-dashoffset="0" font-family="none" font-weight="none" font-size="none" text-anchor="none" style="mix-blend-mode: normal"><g transform="scale(5.12,5.12)"><path d="M38,17.494l-11,-10.969l-11,-1.732l-4,2.309l-4,10.392l4,15.012l11,10.969l11,1.732l4,-2.309l4,-10.392z" fill="#5900ff"></path><path d="M12,7.102l4,-2.309l11,1.732l-4,2.309z" fill="#9460f4"></path><path d="M34,19.804l4,-2.31l-11,-10.969l-4,2.309z" fill="#9b6df0"></path><path d="M34,45.207l4,-2.309l4,-10.392l-4,2.309z" fill="#8e55f9"></path><path d="M34,19.804l4,-2.31l4,15.012l-4,2.309z" fill="#8f5af2"></path><path d="M21,41.48v-10.706l-3,-1.733v-4.618l3,1.732v-5.774l3,-1.732l5,2.887v4.619l-4,-2.31v4.619l4,2.31l-1,4.041l-3,-1.732v10.707l-2,-0.315z" fill="#e6e6e6"></path></g></g></svg>