<svg xmlns="http://www.w3.org/2000/svg" xmlns:xlink="http://www.w3.org/1999/xlink" viewBox="0,0,256,256" width="400px" height="400px"><g fill="none" fill-rule="nonzero" stroke="none" stroke-width="1" stroke-linecap="butt" stroke-linejoin="miter" stroke-miterlimit="10" stroke-dasharray="" stroke-dashoffset="0" font-family="none" font-weight="none" font-size="none" text-anchor="none" style="mix-blend-mode: normal"><g transform="scale(5.12,5.12)"><path d="M40,18.65v25.4l-6,3.47l-22,-12.71l-2,-3.46v-25.4l6,-3.47l22,12.7z" fill="#5900ff"></path><path d="M38,15.19l-4,2.3l-22,-12.7l4,-2.31z" fill="#9460f4"></path><path d="M40,18.65v25.4l-4,2.31v-25.4z" fill="#8e55f9"></path><path d="M40,18.65l-4,2.31l-2,-3.47l4,-2.3z" fill="#8e55f9"></path><path d="M31,19.23l-16,-9.24l-2,1.15v18.48l2,3.46l16,9.24l2,-1.16v-18.47zM31,38.86l-1,0.57l-14,-8.08l-1,-1.73v-16.17l1,-0.57l14,8.08l1,1.73z" fill="#e6e6e6"></path><path d="M29,22.691v2.309l-2,-1.155v-2.309z" fill="#e6e6e6"></path><path d="M24,25.577l1,1.732v2.309l-1,0.577l-2,-1.155l-1,-1.732v-2.308l1,-0.577M21,21.536l-2,1.155v4.619l2,3.464l4,2.309l2,-1.155v-4.619l-2,-3.464l-4,-2.309z" fill="#e6e6e6"></path></g></g></svg>