<svg xmlns="http://www.w3.org/2000/svg" xmlns:xlink="http://www.w3.org/1999/xlink" viewBox="0,0,256,256" width="400px" height="400px"><g fill="none" fill-rule="nonzero" stroke="none" stroke-width="1" stroke-linecap="butt" stroke-linejoin="miter" stroke-miterlimit="10" stroke-dasharray="" stroke-dashoffset="0" font-family="none" font-weight="none" font-size="none" text-anchor="none" style="mix-blend-mode: normal"><g transform="scale(5.12,5.12)"><path d="M16,2.483l-5.998,3.463l-0.002,-0.001v27.715l24.001,13.856l6,-3.464l-0.001,-27.712z" fill="#5900ff"></path><path d="M40,16.34l-24,-13.857l-6,3.464l24,13.857z" fill="#9460f4"></path><path d="M34,19.804l0.001,27.712l6,-3.464l-0.001,-27.712z" fill="#8e55f9"></path><path d="M15,13.453l-1,0.577v1.155l1,1.732l1,0.577l1,-0.577v-1.155l-1,-1.732z" fill="#e6e6e6"></path><path d="M14,18.649v12.702l3,1.732v-12.702z" fill="#e6e6e6"></path><path d="M28,26.732l-4,-2.309l-2,1.154v-2.309l-3,-1.732v12.702l3,1.732v-8.083l1,-0.578l3,1.732l1,1.732v8.083l3,1.732v-10.392z" fill="#e6e6e6"></path></g></g></svg>