<?xml version="1.0" encoding="utf-8"?>
<svg viewBox="0 0 500 500" xmlns="http://www.w3.org/2000/svg">
  <defs/>
  <g id="BG" transform="matrix(0.253624, 0, 0, 0.170977, 5.7189, 163.534668)" style="">
    <rect x="0.5" y="-0.5" class="st0" width="1920" height="1081" style="stroke: rgb(0, 0, 0); stroke-miterlimit: 10;"/>
  </g>
  <g id="Layer_1" transform="matrix(0.518978, 0, 0, 0.540685, -270.451111, 1.944566)" style="">
    <g>
      <path class="st1" d="M567.59,321.99v60.45l66.8-60.45h28.22l-75.78,68.65l78.81,71.39h-28.22l-69.82-62.99v62.99h-20.02V321.99&#10;&#9;&#9;&#9;H567.59z" style="fill: rgb(255, 255, 255);"/>
      <path class="st1" d="M700.99,377.26v84.77h-19.14v-104h19.14v18.36c0.13-2.54,0.72-4.93,1.76-7.18c1.04-2.25,2.42-4.2,4.15-5.86&#10;&#9;&#9;&#9;c1.72-1.66,3.73-2.96,6.01-3.91c2.28-0.94,4.72-1.42,7.32-1.42h20.41c2.67,0,5.16,0.5,7.47,1.51c2.31,1.01,4.35,2.38,6.1,4.1&#10;&#9;&#9;&#9;c1.76,1.73,3.14,3.76,4.15,6.1c1.01,2.34,1.51,4.85,1.51,7.52v17.58h-19.24v-17.58H700.99z" style="fill: rgb(255, 255, 255);"/>
      <path class="st1" d="M899.82,442.79v-24.12h-45.61c-2.67,0-5.18-0.5-7.52-1.51c-2.34-1.01-4.38-2.38-6.1-4.1&#10;&#9;&#9;&#9;c-1.73-1.72-3.09-3.76-4.1-6.1c-1.01-2.34-1.51-4.85-1.51-7.52v-22.17c0-2.67,0.5-5.18,1.51-7.52c1.01-2.34,2.38-4.38,4.1-6.1&#10;&#9;&#9;&#9;c1.72-1.72,3.76-3.09,6.1-4.1c2.34-1.01,4.85-1.51,7.52-1.51h60.84v19.24h-60.84v22.17h45.61c2.67,0,5.16,0.5,7.47,1.51&#10;&#9;&#9;&#9;c2.31,1.01,4.35,2.38,6.1,4.1c1.76,1.73,3.14,3.76,4.15,6.1c1.01,2.34,1.51,4.85,1.51,7.52v24.12c0,2.67-0.5,5.18-1.51,7.52&#10;&#9;&#9;&#9;c-1.01,2.34-2.39,4.38-4.15,6.1c-1.76,1.73-3.79,3.09-6.1,4.1c-2.31,1.01-4.8,1.51-7.47,1.51h-64.84v-19.24H899.82z" style="fill: rgb(255, 255, 255);"/>
      <path class="st1" d="M1011.83,442.79v-24.12h-45.61c-2.67,0-5.18-0.5-7.52-1.51c-2.34-1.01-4.38-2.38-6.1-4.1&#10;&#9;&#9;&#9;c-1.73-1.72-3.09-3.76-4.1-6.1c-1.01-2.34-1.51-4.85-1.51-7.52v-22.17c0-2.67,0.5-5.18,1.51-7.52c1.01-2.34,2.38-4.38,4.1-6.1&#10;&#9;&#9;&#9;c1.72-1.72,3.76-3.09,6.1-4.1c2.34-1.01,4.85-1.51,7.52-1.51h60.84v19.24h-60.84v22.17h45.61c2.67,0,5.16,0.5,7.47,1.51&#10;&#9;&#9;&#9;c2.31,1.01,4.35,2.38,6.1,4.1c1.76,1.73,3.14,3.76,4.15,6.1c1.01,2.34,1.51,4.85,1.51,7.52v24.12c0,2.67-0.5,5.18-1.51,7.52&#10;&#9;&#9;&#9;c-1.01,2.34-2.39,4.38-4.15,6.1c-1.76,1.73-3.79,3.09-6.1,4.1c-2.31,1.01-4.8,1.51-7.47,1.51h-64.84v-19.24H1011.83z" style="fill: rgb(255, 255, 255);"/>
    </g>
  </g>
  <g id="Kriss" transform="matrix(1, 0, 0, 1, -684.349365, -417.092041)"/>
  <g id="Layer_2" transform="matrix(0.518978, 0, 0, 0.540685, -270.451111, 1.944566)" style="">
    <g>
      <path class="st1" d="M833.91,630.63V490.59h71.19c7.49,0,14.24,1.16,20.26,3.47c6.02,2.31,11.17,5.6,15.43,9.86&#10;&#9;&#9;&#9;c4.26,4.26,7.55,9.42,9.86,15.48s3.47,12.79,3.47,20.21v41.99c0,7.42-1.16,14.16-3.47,20.21s-5.6,11.21-9.86,15.48&#10;&#9;&#9;&#9;c-4.26,4.26-9.41,7.55-15.43,9.86c-6.02,2.31-12.78,3.47-20.26,3.47H833.91z M905.1,610.61c9.31,0,16.47-2.51,21.48-7.52&#10;&#9;&#9;&#9;c5.01-5.01,7.52-12.17,7.52-21.48v-41.99c0-4.56-0.65-8.63-1.95-12.21c-1.3-3.58-3.21-6.62-5.71-9.13&#10;&#9;&#9;&#9;c-2.51-2.51-5.55-4.41-9.13-5.71c-3.58-1.3-7.65-1.95-12.21-1.95h-51.17v100H905.1z" style="fill: rgb(255, 255, 255);"/>
      <path class="st1" d="M1003.35,545.87v84.77h-19.14v-104h19.14v18.36c0.13-2.54,0.72-4.93,1.76-7.18c1.04-2.25,2.42-4.2,4.15-5.86&#10;&#9;&#9;&#9;c1.72-1.66,3.73-2.96,6.01-3.91c2.28-0.94,4.72-1.42,7.32-1.42h20.41c2.67,0,5.16,0.5,7.47,1.51c2.31,1.01,4.35,2.38,6.1,4.1&#10;&#9;&#9;&#9;c1.76,1.73,3.14,3.76,4.15,6.1c1.01,2.34,1.51,4.85,1.51,7.52v17.58h-19.24v-17.58H1003.35z" style="fill: rgb(255, 255, 255);"/>
      <path class="st1" d="M1086.16,585.22c0-2.67,0.5-5.16,1.51-7.47c1.01-2.31,2.38-4.35,4.1-6.1c1.72-1.76,3.76-3.14,6.1-4.15&#10;&#9;&#9;&#9;c2.34-1.01,4.82-1.51,7.42-1.51h49.61v-20.12h-62.79v-19.24h62.79c2.67,0,5.18,0.5,7.52,1.51c2.34,1.01,4.38,2.38,6.1,4.1&#10;&#9;&#9;&#9;c1.72,1.73,3.09,3.76,4.1,6.1c1.01,2.34,1.51,4.85,1.51,7.52v84.77h-19.24v-17.58c-0.2,2.41-0.85,4.69-1.95,6.84&#10;&#9;&#9;&#9;c-1.11,2.15-2.52,4.02-4.25,5.62c-1.73,1.6-3.7,2.85-5.91,3.76c-2.21,0.91-4.56,1.37-7.03,1.37h-30.47c-2.6,0-5.08-0.5-7.42-1.51&#10;&#9;&#9;&#9;c-2.34-1.01-4.38-2.38-6.1-4.1c-1.73-1.72-3.09-3.76-4.1-6.1c-1.01-2.34-1.51-4.85-1.51-7.52V585.22z M1105.3,611.4h49.61v-26.17&#10;&#9;&#9;&#9;h-49.61V611.4z" style="fill: rgb(255, 255, 255);"/>
      <path class="st1" d="M1227.76,630.63l-33.59-104h19.43l24.61,78.42l22.95-78.42h19.63l22.95,78.42l24.61-78.42h19.43l-33.59,104&#10;&#9;&#9;&#9;h-20.02l-23.24-76.37l-23.14,76.37H1227.76z" style="fill: rgb(255, 255, 255);"/>
      <path class="st1" d="M1430.59,611.4v-24.12h-45.61c-2.67,0-5.18-0.5-7.52-1.51c-2.34-1.01-4.38-2.38-6.1-4.1&#10;&#9;&#9;&#9;c-1.73-1.72-3.09-3.76-4.1-6.1c-1.01-2.34-1.51-4.85-1.51-7.52v-22.17c0-2.67,0.5-5.18,1.51-7.52c1.01-2.34,2.38-4.38,4.1-6.1&#10;&#9;&#9;&#9;c1.72-1.72,3.76-3.09,6.1-4.1c2.34-1.01,4.85-1.51,7.52-1.51h60.84v19.24h-60.84v22.17h45.61c2.67,0,5.16,0.5,7.47,1.51&#10;&#9;&#9;&#9;c2.31,1.01,4.35,2.38,6.1,4.1c1.76,1.73,3.14,3.76,4.15,6.1c1.01,2.34,1.51,4.85,1.51,7.52v24.12c0,2.67-0.5,5.18-1.51,7.52&#10;&#9;&#9;&#9;c-1.01,2.34-2.39,4.38-4.15,6.1c-1.76,1.73-3.79,3.09-6.1,4.1c-2.31,1.01-4.8,1.51-7.47,1.51h-64.84V611.4H1430.59z" style="fill: rgb(255, 255, 255);"/>
    </g>
  </g>
  <g id="Paintbrush" transform="matrix(0.518978, 0, 0, 0.540685, -270.451111, 1.944566)" style="">
    <g id="SVGRepo_iconCarrier">
      <g id="XMLID_45_">
        <g>
          <path class="st2" d="M768.48,518.78c-0.62-0.14-1.64-0.6-1.5-2.08l4.48-45.51l14.08,3.34l-14.84,43.02&#10;&#9;&#9;&#9;&#9;&#9;c-0.18,0.53-0.45,0.85-0.76,1.05C769.44,518.91,768.86,518.87,768.48,518.78z" style="fill: rgb(255, 255, 255); stroke: rgb(0, 0, 0); stroke-miterlimit: 2.5724; stroke-width: 0.6431px;"/>
          <path class="st2" d="M824.89,359.46l-41.08-9.75c1.31-4.41,4.04-8.31,7.82-11.02c4.87-3.52,11.04-4.75,16.92-3.4&#10;&#9;&#9;&#9;&#9;&#9;c5.89,1.35,10.96,5.17,13.9,10.47C824.78,349.96,825.61,354.8,824.89,359.46z" style="fill: rgb(255, 255, 255); stroke: rgb(0, 0, 0); stroke-miterlimit: 2.5724; stroke-width: 0.6431px;"/>
          <path class="st2" d="M813.16,314.15c-6.41-1.46-11.87-5.36-15.37-10.96c-3.44-5.48-4.54-11.93-3.11-18.14&#10;&#9;&#9;&#9;&#9;&#9;c2.62-11.4,7.77-17.66,12.74-23.72c5.47-6.64,11.11-13.51,12.75-26.12c2.27,1.51,6.22,5.06,10.7,11.61&#10;&#9;&#9;&#9;&#9;&#9;c4.96,7.26,15.96,26.56,11.13,49.06c0,0,0,0,0,0.01c-1.35,6.3-5.09,11.67-10.51,15.13c-0.01,0.01-0.03,0.02-0.04,0.02&#10;&#9;&#9;&#9;&#9;&#9;C825.99,314.5,819.5,315.61,813.16,314.15z" style="fill: rgb(255, 255, 255); stroke: rgb(0, 0, 0); stroke-miterlimit: 2.5724; stroke-width: 0.6431px;"/>
          <polygon class="st2" points="787.87,467.78 772.17,464.05 782.67,357.25 822.72,366.75 &#9;&#9;&#9;&#9;" style="fill: rgb(255, 255, 255); stroke: rgb(0, 0, 0); stroke-miterlimit: 2.5724; stroke-width: 0.6431px;"/>
          <path class="st2" d="M799.33,327.49l2.2-10.07c3.04,1.92,6.41,3.33,10.01,4.15c3.6,0.83,7.24,1.02,10.78,0.61l-2.2,10.08&#10;&#9;&#9;&#9;&#9;&#9;c-2.99-2.06-6.36-3.57-9.95-4.39C806.57,327.03,802.89,326.94,799.33,327.49z" style="fill: rgb(255, 255, 255); stroke: rgb(0, 0, 0); stroke-miterlimit: 2.5724; stroke-width: 0.6431px;"/>
          <path class="st3" d="M766.86,526.2c-4.85-1.11-7.91-5.36-7.42-10.32l16.03-163.03c0.81-8.18,5.07-15.6,11.69-20.37&#10;&#9;&#9;&#9;&#9;&#9;c0.45-0.32,0.92-0.64,1.39-0.93c0.79-0.5,1.6-0.96,2.43-1.37l3.99-18.27c-1.32-1.44-2.52-3.01-3.58-4.7&#10;&#9;&#9;&#9;&#9;&#9;c-4.53-7.22-5.99-15.73-4.1-23.94c3.01-13.12,8.98-20.39,14.26-26.81c5.54-6.73,10.32-12.55,11.31-24.37&#10;&#9;&#9;&#9;&#9;&#9;c0.17-2.01,1.08-3.62,2.55-4.55c0.26-0.16,0.53-0.31,0.82-0.42c2.83-1.17,6.31,0.05,10.65,3.71&#10;&#9;&#9;&#9;&#9;&#9;c5.22,4.4,12.66,13.48,17.89,25.73c2.04,4.78,4.09,10.89,5.19,17.87c1.09,6.98,1.24,14.84-0.54,23.12&#10;&#9;&#9;&#9;&#9;&#9;c-1.78,8.3-6.69,15.37-13.82,19.91c-0.02,0.01-0.04,0.02-0.05,0.03c-1.59,1.01-3.26,1.86-4.97,2.56l-3.99,18.29&#10;&#9;&#9;&#9;&#9;&#9;c0.92,1.18,1.76,2.43,2.49,3.76c4.01,7.22,4.77,15.79,2.1,23.54l-53.29,154.47C776.24,524.81,771.72,527.32,766.86,526.2z&#10;&#9;&#9;&#9;&#9;&#9; M766.98,516.7c-0.14,1.48,0.88,1.94,1.5,2.08c0.38,0.09,0.96,0.13,1.46-0.18c0.3-0.19,0.57-0.52,0.76-1.05l14.84-43.02&#10;&#9;&#9;&#9;&#9;&#9;l-14.08-3.34L766.98,516.7z M772.17,464.05l15.7,3.73l34.86-101.03l-40.06-9.5L772.17,464.05z M783.8,349.71l41.08,9.75&#10;&#9;&#9;&#9;&#9;&#9;c0.72-4.66-0.11-9.49-2.44-13.7c-2.95-5.3-8.02-9.12-13.9-10.47c-5.88-1.36-12.05-0.12-16.92,3.4&#10;&#9;&#9;&#9;&#9;&#9;C787.84,341.4,785.12,345.3,783.8,349.71z M801.53,317.42l-2.2,10.07c3.56-0.56,7.24-0.46,10.84,0.37&#10;&#9;&#9;&#9;&#9;&#9;c3.6,0.83,6.97,2.33,9.95,4.39l2.2-10.08c-3.54,0.41-7.18,0.22-10.78-0.61C807.94,320.75,804.57,319.34,801.53,317.42z&#10;&#9;&#9;&#9;&#9;&#9; M797.79,303.19c3.5,5.6,8.97,9.5,15.37,10.96c6.34,1.45,12.83,0.35,18.28-3.11c0.01-0.01,0.03-0.02,0.04-0.02&#10;&#9;&#9;&#9;&#9;&#9;c5.43-3.46,9.16-8.83,10.51-15.13c0-0.01,0-0.01,0-0.01c4.83-22.49-6.17-41.79-11.13-49.06c-4.48-6.56-8.43-10.1-10.7-11.61&#10;&#9;&#9;&#9;&#9;&#9;c-1.64,12.61-7.28,19.48-12.75,26.12c-4.98,6.06-10.13,12.32-12.74,23.72C793.24,291.26,794.35,297.71,797.79,303.19z" style="stroke: rgb(0, 0, 0); stroke-miterlimit: 2.5724; stroke-width: 0.6431px;"/>
        </g>
      </g>
    </g>
  </g>
  <g id="Palette" transform="matrix(0.518978, 0, 0, 0.540685, -270.451111, 1.944566)" style="">
    <g id="SVGRepo_iconCarrier_00000127732716615615729380000000124238445101421700_">
      <g>
        <g>
          <path class="st4" d="M1143,346.28c-27.42,26.03-30.82,48.68-65.1,54.83c-37.37,6.71-61.77,35.51-34.4,73.34&#10;&#9;&#9;&#9;&#9;&#9;c29.36,40.56,86.47,62.05,150.75,50.51c79.55-14.28,135.37-74.2,124.67-133.84c-1.76-9.81-5.21-19-10.1-27.45l-0.01,0.01&#10;&#9;&#9;&#9;&#9;&#9;C1282.97,321.16,1193.2,298.62,1143,346.28z M1136.2,394.92c11.91,4.38,8.75,23-5.29,32.49c-12.37,8.36-31.98,9.63-42.31,0.86&#10;&#9;&#9;&#9;&#9;&#9;c-5.98-5.09-2.56-13.83,6.31-16.97c7.22-2.55,15.99-6.71,23.5-13.31C1123,393.95,1130.46,392.8,1136.2,394.92z" style="fill: rgb(230, 190, 148);"/>
        </g>
        <g>
          <ellipse transform="matrix(0.9843 -0.1766 0.1766 0.9843 -66.1367 204.9192)" class="st5" cx="1118.01" cy="473.97" rx="28.26" ry="21.19" style="fill: rgb(255, 79, 25);"/>
        </g>
        <g>
          <ellipse transform="matrix(0.9843 -0.1766 0.1766 0.9843 -65.5702 203.4661)" class="st6" cx="1110.13" cy="470.06" rx="9.89" ry="7.42" style="fill: rgb(255, 140, 98);"/>
        </g>
        <g>
          <ellipse transform="matrix(0.9843 -0.1766 0.1766 0.9843 -66.4646 218.0242)" class="st7" cx="1191.46" cy="482.36" rx="28.26" ry="21.19" style="fill: rgb(255, 205, 0);"/>
        </g>
        <g>
          <ellipse transform="matrix(0.9843 -0.1766 0.1766 0.9843 -65.8981 216.5707)" class="st8" cx="1183.58" cy="478.45" rx="9.89" ry="7.42" style="fill: rgb(255, 230, 113);"/>
        </g>
        <g>
          <ellipse transform="matrix(0.9843 -0.1766 0.1766 0.9843 -59.1645 228.1566)" class="st9" cx="1252.03" cy="446.42" rx="28.26" ry="21.19" style="fill: rgb(0, 195, 122);"/>
        </g>
        <g>
          <ellipse transform="matrix(0.9843 -0.1766 0.1766 0.9843 -58.5981 226.7034)" class="st10" cx="1244.15" cy="442.51" rx="9.89" ry="7.42" style="fill: rgb(96, 220, 77);"/>
        </g>
        <g>
          <ellipse transform="matrix(0.9843 -0.1766 0.1766 0.9843 -48.9585 229.7343)" class="st11" cx="1265.99" cy="389.88" rx="28.26" ry="21.19" style="fill: rgb(76, 215, 255);"/>
        </g>
        <g>
          <ellipse transform="matrix(0.9843 -0.1766 0.1766 0.9843 -48.3921 228.2813)" class="st12" cx="1258.12" cy="385.97" rx="9.89" ry="7.42" style="fill: rgb(174, 239, 255);"/>
        </g>
        <g>
          <ellipse transform="matrix(0.9843 -0.1766 0.1766 0.9843 -44.7281 219.0119)" class="st13" cx="1207.88" cy="360.75" rx="28.26" ry="21.19" style="fill: rgb(0, 155, 202);"/>
        </g>
        <g>
          <ellipse transform="matrix(0.9843 -0.1766 0.1766 0.9843 -44.1617 217.5588)" class="st11" cx="1200" cy="356.85" rx="9.89" ry="7.42" style="fill: rgb(76, 215, 255);"/>
        </g>
      </g>
    </g>
  </g>
</svg>